<svg width="42" height="42" viewBox="0 0 42 42" fill="none" xmlns="http://www.w3.org/2000/svg">
<path d="M2.27701 7.99318C2.07685 7.99318 1.9292 8.14248 1.9292 8.34428V25.4887C1.9292 25.6888 2.07685 25.8365 2.27701 25.8365H8.46067C8.66082 25.8365 8.81176 25.6888 8.81176 25.4887C8.81176 25.2885 8.66082 25.1376 8.46067 25.1376H2.62645V8.69038H26.2825V16.3982H21.1623C20.9622 16.3982 20.8145 16.5475 20.8145 16.7493V25.1397H16.2567C16.1861 25.1397 16.1156 25.1626 16.0565 25.202L8.26172 30.6045C8.09766 30.7193 8.05828 30.9244 8.17313 31.0884C8.24368 31.1902 8.3536 31.241 8.46352 31.241C8.53407 31.241 8.59805 31.2213 8.66204 31.1787V31.1819L16.3682 25.8366H20.8177V29.6068C20.8177 29.8069 20.967 29.9546 21.1688 29.9546H29.1274L34.886 33.9446C34.9483 33.9872 35.0139 34.0069 35.0845 34.0069C35.1961 34.0069 35.3043 33.9577 35.3749 33.8576C35.4897 33.6936 35.4504 33.4852 35.2863 33.3704L29.4374 29.318C29.3799 29.277 29.3143 29.2573 29.2389 29.2573H21.5163V17.0937H39.376V29.2573H35.0874C34.8872 29.2573 34.7395 29.405 34.7395 29.6051C34.7395 29.8053 34.8872 29.9529 35.0874 29.9529H39.7237C39.9239 29.9529 40.0748 29.8053 40.0748 29.6051V16.7477C40.0748 16.5508 39.9239 16.4031 39.727 16.3999H26.9859V8.34426C26.9859 8.1441 26.8382 7.99316 26.6381 7.99316L2.27701 7.99318Z" fill="black"/>
</svg>
