<svg width="40" height="40" viewBox="0 0 40 40" fill="none" xmlns="http://www.w3.org/2000/svg">
<rect x="0.5" y="0.5" width="39" height="39" rx="19.5" fill="black"/>
<rect x="0.5" y="0.5" width="39" height="39" rx="19.5" stroke="black"/>
<path d="M10.7678 9.60539C10.6271 9.5646 10.478 9.56259 10.3363 9.59958C10.1946 9.63658 10.0655 9.7112 9.96269 9.81554C9.85989 9.91989 9.78722 10.0501 9.75235 10.1924C9.71749 10.3346 9.72173 10.4837 9.76464 10.6237L12.3993 19.1875H21.625C21.8405 19.1875 22.0471 19.2731 22.1995 19.4255C22.3519 19.5778 22.4375 19.7845 22.4375 20C22.4375 20.2155 22.3519 20.4221 22.1995 20.5745C22.0471 20.7269 21.8405 20.8125 21.625 20.8125H12.3993L9.76464 29.3762C9.72173 29.5163 9.71749 29.6653 9.75235 29.8076C9.78722 29.9499 9.85989 30.0801 9.96269 30.1844C10.0655 30.2888 10.1946 30.3634 10.3363 30.4004C10.478 30.4374 10.6271 30.4354 10.7678 30.3946C17.934 28.3106 24.6918 25.0183 30.7499 20.6597C30.8546 20.5845 30.9398 20.4854 30.9987 20.3707C31.0575 20.256 31.0882 20.1289 31.0882 20C31.0882 19.8711 31.0575 19.744 30.9987 19.6293C30.9398 19.5145 30.8546 19.4155 30.7499 19.3402C24.6918 14.9816 17.934 11.6893 10.7678 9.60539Z" fill="white"/>
</svg>
